/* XPM */
static char *_82151ef2aba46e29b3b017c91f6e8fd[] = {
/* columns rows colors chars-per-pixel */
"32 32 67 1 ",
"  c #AA2C2F",
". c #AD2C2F",
"X c #B02A2E",
"o c #B42A2E",
"O c #B12C2F",
"+ c #B92B2E",
"@ c #BB2B2E",
"# c #BE2A2D",
"$ c #BF2A2D",
"% c #BC382F",
"& c #A32D30",
"* c #A72D30",
"= c #BF3733",
"- c #C12A2D",
"; c #C02B2D",
": c #C12B2D",
"> c #C22A2D",
", c #C52A2C",
"< c #C72A2C",
"1 c #CC282B",
"2 c #CD282B",
"3 c #CA2E2B",
"4 c #CB2F2B",
"5 c #CF2E2B",
"6 c #C0352E",
"7 c #C93D2F",
"8 c #D73E29",
"9 c #D73F29",
"0 c #D94128",
"q c #DB4428",
"w c #DB4528",
"e c #DB4A2A",
"r c #DD4928",
"t c #DD4E29",
"y c #D9562F",
"u c #DD5B29",
"i c #CE4C30",
"p c #D04D30",
"a c #D04E30",
"s c #DD5031",
"d c #D95C31",
"f c #E45927",
"g c #DC6932",
"h c #DC6A32",
"j c #DC6B32",
"k c #DC6C33",
"l c #DE6D32",
"z c #DD7033",
"x c #DE713B",
"c c #E1632C",
"v c #E37028",
"b c #E67928",
"n c #C85441",
"m c #E07941",
"M c #E17A43",
"N c #ED9027",
"B c #E58757",
"V c #E58857",
"C c #E68959",
"Z c #E78C5A",
"A c #E8925C",
"S c #EA9A5E",
"D c #EA9B5E",
"F c #ECA561",
"G c #EEAA63",
"H c #EEAC63",
"J c None",
/* pixels */
"JJJJJJJJJqqqqJJJJJJJJJJJJJJJJJJJ",
"JJJJJJJJqqqqqqqqJJJJJJJJJJJJJJJJ",
"JJJJJJJqqqqqqqqqq0JJJJJJJJJJJJJJ",
"JJJJJJJqqqqqqqqqqq4<<JJJJJJJJJJJ",
"JJJJJJJqqqqqqqqqqq0<<<<JJJJJJJJJ",
"JJJJJJqqqJJJJqqqqqq3<<<<<oJJJJJJ",
"JJJJJJqqqJJJJJJqqqq9<<#oXXXXJJJJ",
"JJJJJqqqJJJJJJJJJJqs=XXXXXXXoXoJ",
"JJJJJqqqJJJJJJJJJJJJnoXXXXXXXXXX",
"JJJJJqqJJJJJJJJJJJJJJJJoXXXXXXXJ",
"JJJJqqqJJJJJJJJJJJJJJJJJJoXXXXXJ",
"JJJJrqqJJJJJJJJJJJJJJJJJJJJXXXoJ",
"JJJffteydJJddJJJJJJJJJJJJJJJXXJJ",
"JJJclzhdddddddJJJJJJJJJJJJJJXXJJ",
"JJJzzzzhdddddJJJJJJJJJJJJJJJoJJJ",
"JJzzzzzzhddddJJJJJJ&&JJJJJJXXJJJ",
"JJzzzzzzzkdddJJJJJJ&&&JJJJJXXJJJ",
"JzzzzzzzzzkdJJJJJJJ&&&JJJJo%JJJJ",
"JzzzzzzzzzlxJJJJJJ&&&&&&JJiaJJJJ",
"JzzzzzzzzmCJJJJJJJ&&&&&&O-aJJJJJ",
"JzzzzzzmVCCJJJJJJ&&&&&.#--7JJJJJ",
"JzzzzmBCCCCJJJJJJ&&* #-----JJJJJ",
"JJzmVCCCCCJJJJJJJ&*+------JJJJJJ",
"JJJDZCCCCCJJJJJJ6+--------JJJJJJ",
"JJJHHFACCJJJJJJb22-------JJJJJJJ",
"JJJJHHHGDJJJJJNu222------JJJJJJJ",
"JJJJHHHHHJJJNNN52222-----JJJJJJJ",
"JJJJJHHHJJJJJJv222222---JJJJJJJJ",
"JJJJJHHHJJJJJJJJ222222--JJJJJJJJ",
"JJJJJHHJJJJJJJJJJJJ222JJJJJJJJJJ",
"JJJJJJHJJJJJJJJJJJJJJJJJJJJJJJJJ",
"JJJJJJJJJJJJJJJJJJJJJJJJJJJJJJJJ"
};
