/* XPM */
static char *d0dd781ac4ff436def4a48c191056cf0[] = {
/* columns rows colors chars-per-pixel */
"16 16 42 1 ",
"  c #AA2C2F",
". c #AC2D2F",
"X c #B02A2E",
"o c #B32A2E",
"O c #BC2A2D",
"+ c #BE2A2D",
"@ c #BF2A2D",
"# c #BA2F2F",
"$ c #B5302E",
"% c #A32D30",
"& c #B22E30",
"* c #C12A2D",
"= c #C22A2D",
"- c #C32A2D",
"; c #C72A2C",
": c #CC282B",
"> c #CD282B",
", c #CD312B",
"< c #D2392A",
"1 c #D94228",
"2 c #DB4428",
"3 c #D9462C",
"4 c #CF4D30",
"5 c #D95A30",
"6 c #D95C31",
"7 c #D95D31",
"8 c #DD6330",
"9 c #DC6C33",
"0 c #DC6D33",
"q c #DD7033",
"w c #DF763D",
"e c #E2612B",
"r c #E06529",
"t c #E0783F",
"y c #ED9027",
"u c #E58655",
"i c #E68B56",
"p c #E68959",
"a c #E8925C",
"s c #ECA561",
"d c #EEAC63",
"f c None",
/* pixels */
"ffff222fffffffff",
"fff222221;ffffff",
"fff222222,;;ffff",
"ff22ffff23@ooXof",
"ff2fffffff&oXXXX",
"ff2ffffffffffXof",
"fe8566ffffffffXf",
"fqq966ffffffffof",
"qqqq06fff%%ff$ff",
"qqqqwffff%%%#4ff",
"qqtupfff%% @*fff",
"fipppfff.@@**fff",
"fdsafffr:;***fff",
"ffddffy<::**ffff",
"ffdfffff:::fffff",
"ffffffffffffffff"
};
