/* XPM */
static char *_c25b0e6b87c408fb3fe239bf4c96534[] = {
/* columns rows colors chars-per-pixel */
"64 64 119 2 ",
"   c #A92C2F",
".  c #AC2C2F",
"X  c #AF2C2F",
"o  c #B02A2E",
"O  c #B12A2E",
"+  c #B12B2E",
"@  c #B22A2E",
"#  c #B22B2E",
"$  c #B32B2E",
"%  c #B52A2E",
"&  c #B52B2E",
"*  c #B12C2E",
"=  c #B92A2D",
"-  c #B92B2E",
";  c #BB2B2E",
":  c #BD2A2D",
">  c #BF2A2D",
",  c #B8332F",
"<  c #BE3A2F",
"1  c #A32D30",
"2  c #A42D30",
"3  c #A52D30",
"4  c #A72D30",
"5  c #AD3430",
"6  c #B43231",
"7  c #C02A2D",
"8  c #C12A2D",
"9  c #C22A2D",
"0  c #C6292C",
"q  c #C42A2C",
"w  c #C62A2C",
"e  c #C72A2C",
"r  c #C22C2D",
"t  c #C22D2D",
"y  c #CB282B",
"u  c #CC282B",
"i  c #CD282B",
"p  c #CA2D2B",
"a  c #CA2E2B",
"s  c #CF2F2B",
"d  c #C9292C",
"f  c #CA292C",
"g  c #C92D2C",
"h  c #CE342D",
"j  c #C03C2F",
"k  c #D33C2A",
"l  c #D53C29",
"z  c #D63D29",
"x  c #D73E29",
"c  c #D53E2B",
"v  c #CA412F",
"b  c #CB422F",
"n  c #D5412A",
"m  c #D84029",
"M  c #DB4428",
"N  c #DB482A",
"B  c #DD4A28",
"V  c #DE4B28",
"C  c #DC4C2E",
"Z  c #DB5729",
"A  c #DA512C",
"S  c #DA542E",
"D  c #DE582C",
"F  c #CF4D30",
"G  c #D04E30",
"H  c #D95A30",
"J  c #D95C31",
"K  c #D95D31",
"L  c #D95E31",
"P  c #DA5F31",
"I  c #E45927",
"U  c #E35E29",
"Y  c #DE6129",
"T  c #DF692F",
"R  c #DA6031",
"E  c #DC6C33",
"W  c #DC6D33",
"Q  c #DD6F32",
"!  c #DD6E33",
"~  c #DD6F33",
"^  c #DD7033",
"/  c #DE7439",
"(  c #DF753A",
")  c #DF753B",
"_  c #DF763C",
"`  c #DF773D",
"'  c #E0662E",
"]  c #E67A28",
"[  c #E0773E",
"{  c #E0783F",
"}  c #D3674A",
"|  c #E16D46",
" . c #E07941",
".. c #E17A42",
"X. c #E27E49",
"o. c #EB8A27",
"O. c #EC8C27",
"+. c #ED9027",
"@. c #E48452",
"#. c #E58553",
"$. c #E58654",
"%. c #E58655",
"&. c #E58457",
"*. c #E58756",
"=. c #E58757",
"-. c #E58658",
";. c #E68959",
":. c #E68A59",
">. c #E68B59",
",. c #E78E5B",
"<. c #E8905B",
"1. c #E9955C",
"2. c #E9975D",
"3. c #EA995D",
"4. c #EBA060",
"5. c #ECA160",
"6. c #EDA962",
"7. c #EEAC63",
"8. c None",
/* pixels */
"8.8.8.8.8.8.8.8.8.8.8.8.8.8.8.8.8.8.8.M M M M M M 8.8.8.8.8.8.8.8.8.8.8.8.8.8.8.8.8.8.8.8.8.8.8.8.8.8.8.8.8.8.8.8.8.8.8.8.8.8.8.",
"8.8.8.8.8.8.8.8.8.8.8.8.8.8.8.8.8.M M M M M M M M M M 8.8.8.8.8.8.8.8.8.8.8.8.8.8.8.8.8.8.8.8.8.8.8.8.8.8.8.8.8.8.8.8.8.8.8.8.8.",
"8.8.8.8.8.8.8.8.8.8.8.8.8.8.8.8.M M M M M M M M M M M M M M 8.8.8.8.8.8.8.8.8.8.8.8.8.8.8.8.8.8.8.8.8.8.8.8.8.8.8.8.8.8.8.8.8.8.",
"8.8.8.8.8.8.8.8.8.8.8.8.8.8.8.M M M M M M M M M M M M M M M M M M 8.8.8.8.8.8.8.8.8.8.8.8.8.8.8.8.8.8.8.8.8.8.8.8.8.8.8.8.8.8.8.",
"8.8.8.8.8.8.8.8.8.8.8.8.8.8.M M M M M M M M M M M M M M M M M M M M M 8.8.8.8.8.8.8.8.8.8.8.8.8.8.8.8.8.8.8.8.8.8.8.8.8.8.8.8.8.",
"8.8.8.8.8.8.8.8.8.8.8.8.8.8.M M M M M M M M M M M M M M M M M M M M M g g w 8.8.8.8.8.8.8.8.8.8.8.8.8.8.8.8.8.8.8.8.8.8.8.8.8.8.",
"8.8.8.8.8.8.8.8.8.8.8.8.8.M M M M M M M M M M M M M M M M M M M M M M x e e w e 8.8.8.8.8.8.8.8.8.8.8.8.8.8.8.8.8.8.8.8.8.8.8.8.",
"8.8.8.8.8.8.8.8.8.8.8.8.8.M M M M M M M M M M M M M M M M M M M M M M M g e e e e e e 8.8.8.8.8.8.8.8.8.8.8.8.8.8.8.8.8.8.8.8.8.",
"8.8.8.8.8.8.8.8.8.8.8.8.8.M M M M M M M M M M M M M M M M M M M M M M M x e e e e e e e e 8.8.8.8.8.8.8.8.8.8.8.8.8.8.8.8.8.8.8.",
"8.8.8.8.8.8.8.8.8.8.8.8.M M M M M M M M M M M M M M M M M M M M M M M M M g e e e e e e e e e e 8.8.8.8.8.8.8.8.8.8.8.8.8.8.8.8.",
"8.8.8.8.8.8.8.8.8.8.8.8.M M M M M M 8.8.8.8.8.8.M M M M M M M M M M M M M l e e e e e e e e e w w e 8.8.8.8.8.8.8.8.8.8.8.8.8.8.",
"8.8.8.8.8.8.8.8.8.8.8.M M M M M M 8.8.8.8.8.8.8.8.8.M M M M M M M M M M M M g e e e e e e e e w 9 % o o O 8.8.8.8.8.8.8.8.8.8.8.",
"8.8.8.8.8.8.8.8.8.8.8.M M M M M M 8.8.8.8.8.8.8.8.8.8.8.8.M M M M M M M M M l w e e w w e w = O O o o o o o o 8.8.8.8.8.8.8.8.8.",
"8.8.8.8.8.8.8.8.8.8.8.M M M M M 8.8.8.8.8.8.8.8.8.8.8.8.8.8.8.M M M M M M M M g e e w : O o o o o o o o o o o o O O 8.8.8.8.8.8.",
"8.8.8.8.8.8.8.8.8.8.M M M M M M 8.8.8.8.8.8.8.8.8.8.8.8.8.8.8.8.8.8.M M M M M c 9 % O o O o o o o o o o o o o o o o o o 8.8.8.8.",
"8.8.8.8.8.8.8.8.8.8.M M M M M 8.8.8.8.8.8.8.8.8.8.8.8.8.8.8.8.8.8.8.8.8.M C | &.6 O o o o o o o o o o o o o o o o o o o O O O 8.",
"8.8.8.8.8.8.8.8.8.M M M M M M 8.8.8.8.8.8.8.8.8.8.8.8.8.8.8.8.8.8.8.8.8.8.8.8.&.} o o o o o o o o o o o o o o o o o o o o o o o ",
"8.8.8.8.8.8.8.8.8.M M M M M M 8.8.8.8.8.8.8.8.8.8.8.8.8.8.8.8.8.8.8.8.8.8.8.8.8.8.o o O o o o o o o o o o o o o o o o o o o O 8.",
"8.8.8.8.8.8.8.8.8.M M M M M 8.8.8.8.8.8.8.8.8.8.8.8.8.8.8.8.8.8.8.8.8.8.8.8.8.8.8.8.8.8.o o O o o o o o o o o o o o o o o o o 8.",
"8.8.8.8.8.8.8.8.M M M M M M 8.8.8.8.8.8.8.8.8.8.8.8.8.8.8.8.8.8.8.8.8.8.8.8.8.8.8.8.8.8.8.8.8.O o o o o o o o o o o o o o o O 8.",
"8.8.8.8.8.8.8.8.M M M M M 8.8.8.8.8.8.8.8.8.8.8.8.8.8.8.8.8.8.8.8.8.8.8.8.8.8.8.8.8.8.8.8.8.8.8.8.O O o o o o o o o o o o o 8.8.",
"8.8.8.8.8.8.8.M M M M M M 8.8.8.8.8.8.8.8.8.8.8.8.8.8.8.8.8.8.8.8.8.8.8.8.8.8.8.8.8.8.8.8.8.8.8.8.8.8.8.o o o o o o o o o o 8.8.",
"8.8.8.8.8.8.8.B M M M M M 8.8.8.8.8.8.8.8.8.8.8.8.8.8.8.8.8.8.8.8.8.8.8.8.8.8.8.8.8.8.8.8.8.8.8.8.8.8.8.8.8.O o o o o o O 8.8.8.",
"8.8.8.8.8.8.8.I B M M M M 8.8.8.8.8.8.8.8.J 8.8.8.8.8.8.8.8.8.8.8.8.8.8.8.8.8.8.8.8.8.8.8.8.8.8.8.8.8.8.8.8.8.O o o o o o 8.8.8.",
"8.8.8.8.8.8.I I I B M M M M S J 8.8.8.8.8.J J J 8.8.8.8.8.8.8.8.8.8.8.8.8.8.8.8.8.8.8.8.8.8.8.8.8.8.8.8.8.8.8.8.o o o o o 8.8.8.",
"8.8.8.8.8.8.I I I I D A J J J J J J J 8.J J J J J J J 8.8.8.8.8.8.8.8.8.8.8.8.8.8.8.8.8.8.8.8.8.8.8.8.8.8.8.8.8.o o o o 8.8.8.8.",
"8.8.8.8.8.I I U T ^ ^ Q J J J J J J J J J J J J J J J 8.8.8.8.8.8.8.8.8.8.8.8.8.8.8.8.8.8.8.8.8.8.8.8.8.8.8.8.8.o o o O 8.8.8.8.",
"8.8.8.8.8.' Q ^ ^ ^ ~ ~ ~ J J J J J J J J J J J J J J 8.8.8.8.8.8.8.8.8.8.8.8.8.8.8.8.8.8.8.8.8.8.8.8.8.8.8.8.8.o o o 8.8.8.8.8.",
"8.8.8.8.8.^ ^ ^ ^ ^ ^ ^ ^ ~ J J J J J J J J J J J J 8.8.8.8.8.8.8.8.8.8.8.8.8.8.8.8.8.8.8.8.8.8.8.8.8.8.8.8.8.o o o O 8.8.8.8.8.",
"8.8.8.8.^ ^ ^ ^ ^ ^ ^ ^ ^ ~ ~ J J J J J J J J J J J 8.8.8.8.8.8.8.8.8.8.8.8.8.8.8.8.8.8.8.8.8.8.8.8.8.8.8.8.8.O o o o 8.8.8.8.8.",
"8.8.8.8.^ ^ ^ ^ ^ ^ ^ ^ ^ ^ ^ ~ J J J J J J J J J J 8.8.8.8.8.8.8.8.8.8.8.8.8.8.8.8.8.8.8.8.8.8.8.8.8.8.8.8.8.o o o 8.8.8.8.8.8.",
"8.8.8.^ ^ ^ ^ ^ ^ ^ ^ ^ ^ ^ ^ ^ ^ J J J J J J J J 8.8.8.8.8.8.8.8.8.8.8.8.8.1 1 1 1 8.8.8.8.8.8.8.8.8.8.8.8.O o o o 8.8.8.8.8.8.",
"8.8.8.^ ^ ^ ^ ^ ^ ^ ^ ^ ^ ^ ^ ^ ^ ~ R J J J J J J 8.8.8.8.8.8.8.8.8.8.8.8.8.1 1 1 1 1 1 8.8.8.8.8.8.8.8.8.8.O o o 8.8.8.8.8.8.8.",
"8.8.8.^ ^ ^ ^ ^ ^ ^ ^ ^ ^ ^ ^ ^ ^ ^ ^ J J J J J 8.8.8.8.8.8.8.8.8.8.8.8.8.1 1 1 1 1 1 1 1 8.8.8.8.8.8.8.8.O o o O 8.8.8.8.8.8.8.",
"8.8.^ ^ ^ ^ ^ ^ ^ ^ ^ ^ ^ ^ ^ ^ ^ ^ ^ ^ J J J J 8.8.8.8.8.8.8.8.8.8.8.8.8.1 1 1 1 1 1 1 8.8.8.8.8.8.8.8.8.O O * , 8.8.8.8.8.8.8.",
"8.8.^ ^ ^ ^ ^ ^ ^ ^ ^ ^ ^ ^ ^ ^ ^ ^ ^ ^ ^ R J J 8.8.8.8.8.8.8.8.8.8.8.8.1 1 1 1 1 1 1 1 8.8.8.8.8.8.8.8.8.* < F 8.8.8.8.8.8.8.8.",
"8.^ ^ ^ ^ ^ ^ ^ ^ ^ ^ ^ ^ ^ ^ ^ ^ ^ ^ ^ ^ ^ R 8.8.8.8.8.8.8.8.8.8.8.8.8.1 1 1 1 1 1 1 1 1 1 8.8.8.8.8.8.< F G G 8.8.8.8.8.8.8.8.",
"8.^ ^ ^ ^ ^ ^ ^ ^ ^ ^ ^ ^ ^ ^ ^ ^ ^ ^ ^ ^ ) X.8.8.8.8.8.8.8.8.8.8.8.8.8.1 1 1 1 1 1 1 1 1 1 1 1 1 8.8.8.G G G 8.8.8.8.8.8.8.8.8.",
"8.^ ^ ^ ^ ^ ^ ^ ^ ^ ^ ^ ^ ^ ~ ~ ~ ~ ^ ) @.&.8.8.8.8.8.8.8.8.8.8.8.8.8.1 1 1 1 1 1 1 1 1 1 1 1 1 2 * 9 v G G G 8.8.8.8.8.8.8.8.8.",
"8.^ ^ ^ ^ ^ ^ ^ ^ ^ ^ ^ ^ ^ ^ ~ ^ ) #.>.>.>.8.8.8.8.8.8.8.8.8.8.8.8.8.1 1 1 1 1 1 1 1 1 1 1 2 X 9 9 9 t G G G 8.8.8.8.8.8.8.8.8.",
"8.^ ^ ^ ^ ^ ^ ^ ^ ^ ^ ^ ^ ^ ~  .#.>.;.;.;.:.8.8.8.8.8.8.8.8.8.8.8.8.1 1 1 1 1 1 1 1 1 1 2 X : : 9 9 9 9 v G 8.8.8.8.8.8.8.8.8.8.",
"8.^ ^ ^ ^ ^ ^ ^ ^ ^ ^ ^ ^ [ #.;.&.>.;.;.;.8.8.8.8.8.8.8.8.8.8.8.8.8.1 1 1 1 1 1 1 1 1   : : 9 9 9 9 : 9 t G 8.8.8.8.8.8.8.8.8.8.",
"8.8.^ ^ ^ ^ ^ ^ ~ ^ ~  .#.&.:.:.>.:.:.:.:.8.8.8.8.8.8.8.8.8.8.8.8.8.1 1 1 1 1 1 1   ; 9 9 9 9 9 : 9 : 9 9 8.8.8.8.8.8.8.8.8.8.8.",
"8.8.^ ^ ^ ^ ^ ^ ~  .#.;.>.>.:.:.>.&.:.:.8.8.8.8.8.8.8.8.8.8.8.8.8.1 1 1 1 1 1 2 ; : 9 9 9 9 : 9 9 9 9 9 9 8.8.8.8.8.8.8.8.8.8.8.",
"8.8.8.^ ^ ^ ^ ..&.:.:.;.;.;.;.;.;.;.;.:.8.8.8.8.8.8.8.8.8.8.8.8.8.1 1 1 1 2 % 9 : 9 9 : 9 9 : 9 9 9 9 9 8.8.8.8.8.8.8.8.8.8.8.8.",
"8.8.8.8.^ ..&.>.;.;.:.;.;.;.;.;.;.;.;.:.8.8.8.8.8.8.8.8.8.8.8.8.1 1 1 2 * 9 9 : 9 9 9 9 9 9 9 9 : 9 9 : 8.8.8.8.8.8.8.8.8.8.8.8.",
"8.8.8.8.8.1.>.>.;.;.;.;.;.;.;.;.;.;.:.8.8.8.8.8.8.8.8.8.8.8.8.8.5 1 X : 9 : 9 9 9 9 9 9 : 9 9 9 9 : 9 9 8.8.8.8.8.8.8.8.8.8.8.8.",
"8.8.8.8.8.7.7.4.,.;.;.;.;.;.;.;.;.;.:.8.8.8.8.8.8.8.8.8.8.8.8.8.h w 9 9 9 9 9 9 : 9 9 : 9 9 : 9 9 9 9 8.8.8.8.8.8.8.8.8.8.8.8.8.",
"8.8.8.8.8.8.7.7.7.6.2.>.>.>.>.&.&.>.8.8.8.8.8.8.8.8.8.8.8.8.8.l i i d 9 9 9 9 9 9 9 : 9 9 9 9 9 9 9 9 8.8.8.8.8.8.8.8.8.8.8.8.8.",
"8.8.8.8.8.8.7.7.7.7.7.7.4.,.:.:.>.>.8.8.8.8.8.8.8.8.8.8.8.+.O.i i i i d 9 9 : 9 : 9 9 9 9 9 : 9 9 : 8.8.8.8.8.8.8.8.8.8.8.8.8.8.",
"8.8.8.8.8.8.8.7.7.7.7.7.7.7.7.2.>.8.8.8.8.8.8.8.8.8.8.+.+.+.Y i i i i i e 9 : 9 9 9 9 9 : 9 : 9 9 9 8.8.8.8.8.8.8.8.8.8.8.8.8.8.",
"8.8.8.8.8.8.8.7.7.7.7.7.7.7.7.7.7.8.8.8.8.8.8.8.8.8.+.+.+.+.s i i i i i i y 9 9 9 9 : 9 9 9 9 9 : 9 8.8.8.8.8.8.8.8.8.8.8.8.8.8.",
"8.8.8.8.8.8.8.7.7.7.7.7.7.7.7.7.7.8.8.8.8.8.8.8.+.+.+.+.+.] i i i i i i i i i 9 : 9 9 : 9 9 9 9 9 8.8.8.8.8.8.8.8.8.8.8.8.8.8.8.",
"8.8.8.8.8.8.8.8.7.7.7.7.7.7.7.7.8.8.8.8.8.8.8.+.+.+.+.+.+.n i i i i i i i i i i 9 9 9 9 9 : : 9 9 8.8.8.8.8.8.8.8.8.8.8.8.8.8.8.",
"8.8.8.8.8.8.8.8.7.7.7.7.7.7.7.7.8.8.8.8.8.8.8.8.8.8.+.+.o.i i i i i i i i i i i e 9 9 9 9 9 9 9 8.8.8.8.8.8.8.8.8.8.8.8.8.8.8.8.",
"8.8.8.8.8.8.8.8.8.7.7.7.7.7.7.8.8.8.8.8.8.8.8.8.8.8.8.8.Z i i i i i i i i i i i i i 9 : 9 9 : 9 8.8.8.8.8.8.8.8.8.8.8.8.8.8.8.8.",
"8.8.8.8.8.8.8.8.8.7.7.7.7.7.7.8.8.8.8.8.8.8.8.8.8.8.8.8.8.8.8.i i i i i i i i i i i i w 9 9 9 8.8.8.8.8.8.8.8.8.8.8.8.8.8.8.8.8.",
"8.8.8.8.8.8.8.8.8.7.7.7.7.7.7.8.8.8.8.8.8.8.8.8.8.8.8.8.8.8.8.8.8.i i i i i i i i i i e 9 9 8.8.8.8.8.8.8.8.8.8.8.8.8.8.8.8.8.8.",
"8.8.8.8.8.8.8.8.8.8.7.7.7.7.8.8.8.8.8.8.8.8.8.8.8.8.8.8.8.8.8.8.8.8.8.8.i i i i i i i i e 8.8.8.8.8.8.8.8.8.8.8.8.8.8.8.8.8.8.8.",
"8.8.8.8.8.8.8.8.8.8.7.7.7.7.8.8.8.8.8.8.8.8.8.8.8.8.8.8.8.8.8.8.8.8.8.8.8.8.8.i i i 8.8.8.8.8.8.8.8.8.8.8.8.8.8.8.8.8.8.8.8.8.8.",
"8.8.8.8.8.8.8.8.8.8.8.7.7.8.8.8.8.8.8.8.8.8.8.8.8.8.8.8.8.8.8.8.8.8.8.8.8.8.8.8.8.8.8.8.8.8.8.8.8.8.8.8.8.8.8.8.8.8.8.8.8.8.8.8.",
"8.8.8.8.8.8.8.8.8.8.8.7.7.8.8.8.8.8.8.8.8.8.8.8.8.8.8.8.8.8.8.8.8.8.8.8.8.8.8.8.8.8.8.8.8.8.8.8.8.8.8.8.8.8.8.8.8.8.8.8.8.8.8.8.",
"8.8.8.8.8.8.8.8.8.8.8.7.7.8.8.8.8.8.8.8.8.8.8.8.8.8.8.8.8.8.8.8.8.8.8.8.8.8.8.8.8.8.8.8.8.8.8.8.8.8.8.8.8.8.8.8.8.8.8.8.8.8.8.8.",
"8.8.8.8.8.8.8.8.8.8.8.8.8.8.8.8.8.8.8.8.8.8.8.8.8.8.8.8.8.8.8.8.8.8.8.8.8.8.8.8.8.8.8.8.8.8.8.8.8.8.8.8.8.8.8.8.8.8.8.8.8.8.8.8."
};
